<svg xmlns="http://www.w3.org/2000/svg" width="45" height="34" viewBox="0 0 45 34">
    <defs>
        <linearGradient id="a" x1="-57.527%" x2="232.391%" y1="50.124%" y2="50.124%">
            <stop offset="0%" stop-color="#007940"/>
            <stop offset="22.85%" stop-color="#00873F"/>
            <stop offset="74.33%" stop-color="#40A737"/>
            <stop offset="100%" stop-color="#5CB531"/>
        </linearGradient>
        <linearGradient id="b" x1=".183%" x2="100.273%" y1="49.96%" y2="49.96%">
            <stop offset="0%" stop-color="#007940"/>
            <stop offset="22.85%" stop-color="#00873F"/>
            <stop offset="74.33%" stop-color="#40A737"/>
            <stop offset="100%" stop-color="#5CB531"/>
        </linearGradient>
        <linearGradient id="c" x1="-62.802%" x2="253.671%" y1="49.858%" y2="49.858%">
            <stop offset="0%" stop-color="#007940"/>
            <stop offset="22.85%" stop-color="#00873F"/>
            <stop offset="74.33%" stop-color="#40A737"/>
            <stop offset="100%" stop-color="#5CB531"/>
        </linearGradient>
        <linearGradient id="d" x1=".176%" x2="101.808%" y1="50.006%" y2="50.006%">
            <stop offset="0%" stop-color="#1F286F"/>
            <stop offset="47.51%" stop-color="#004E94"/>
            <stop offset="82.61%" stop-color="#0066B1"/>
            <stop offset="100%" stop-color="#006FBC"/>
        </linearGradient>
        <linearGradient id="e" x1="-.576%" x2="98.133%" y1="49.914%" y2="49.914%">
            <stop offset="0%" stop-color="#6C2C2F"/>
            <stop offset="17.35%" stop-color="#882730"/>
            <stop offset="57.31%" stop-color="#BE1833"/>
            <stop offset="85.85%" stop-color="#DC0436"/>
            <stop offset="100%" stop-color="#E60039"/>
        </linearGradient>
    </defs>
    <g fill="none" fill-rule="nonzero">
        <path fill="#FFF" d="M44.052 27.088c0 3.77-3.07 6.84-6.84 6.84H0V6.839C0 3.07 3.07 0 6.84 0h37.212v27.088z"/>
        <path fill="url(#a)" d="M2.423 17.906h2.828c.08 0 .269-.027.35-.027.538-.107.996-.592.996-1.265 0-.646-.458-1.131-.996-1.266-.081-.027-.243-.027-.35-.027H2.423v2.585z" transform="translate(29.512 2.235)"/>
        <path fill="url(#b)" d="M4.928.054a4.901 4.901 0 0 0-4.901 4.9v5.09h6.92c.162 0 .35 0 .485.027 1.562.08 2.72.888 2.72 2.288 0 1.104-.781 2.047-2.236 2.235v.054c1.59.108 2.8.996 2.8 2.37 0 1.48-1.345 2.45-3.123 2.45H0v9.963h7.19c2.692 0 4.9-2.181 4.9-4.9V.053H4.928z" transform="translate(29.512 2.235)"/>
        <path fill="url(#c)" d="M6.247 12.683c0-.647-.458-1.078-.996-1.158-.054 0-.189-.027-.27-.027H2.423v2.37h2.558c.081 0 .243 0 .27-.028.538-.08.996-.511.996-1.157z" transform="translate(29.512 2.235)"/>
        <path fill="url(#d)" d="M7.351 2.289a4.901 4.901 0 0 0-4.9 4.9v12.09c1.373.674 2.8 1.105 4.227 1.105 1.696 0 2.612-1.024 2.612-2.424v-5.708h4.2v5.681c0 2.208-1.373 4.012-6.031 4.012-2.828 0-5.036-.619-5.036-.619v10.313h7.19c2.693 0 4.9-2.181 4.9-4.9V2.288H7.352z"/>
        <path fill="url(#e)" d="M20.895 2.289a4.901 4.901 0 0 0-4.9 4.9v6.409c1.238-1.05 3.392-1.723 6.866-1.562 1.858.081 3.85.593 3.85.593v2.073c-.996-.512-2.18-.97-3.716-1.077-2.638-.189-4.227 1.104-4.227 3.366 0 2.289 1.589 3.581 4.227 3.366 1.535-.108 2.72-.593 3.716-1.077v2.073s-1.965.512-3.85.592c-3.474.162-5.628-.511-6.867-1.561v11.309h7.19c2.693 0 4.9-2.181 4.9-4.9V2.288h-7.189z"/>
    </g>
</svg>
